# xmcd
# 
# Track frame offsets:
#     150
#     19791
#     35197
#     49630
#     66257
#     83088
#     100563
#     117848
#     140821
#     156813
#     174543
#     197430
#     216447
#     233386
#     254588
#     267436
#     283236
#     294771
# 
# Disc length: 4289
# 
# Revision: 1
# Processed by: cddbd v1.5.2PL0 Copyright (c) Steve Scherf et al.
# Submitted via: fre:ac v1.0.27
# 
DISCID=0610bf12
DTITLE=J D Souther - Border Town - The Very Best Of
DYEAR=0
DGENRE=Country Rock
TTITLE0=White Wing
TTITLE1=How Long
TTITLE2=The Fast One
TTITLE3=Jesus In 3/4 Time
TTITLE4=Pretty Goodbyes
TTITLE5=Border Town
TTITLE6=Somebody Must Be Wrong
TTITLE7=Trouble In Paradise
TTITLE8=Faithless Love
TTITLE9=Black Rose
TTITLE10=If You Have Crying Eyes
TTITLE11=Silver Blue
TTITLE12=You're Only Lonely
TTITLE13=Til The Bars Burn Down
TTITLE14=Say You Will
TTITLE15=Go Ahead And Rain
TTITLE16=I'll Take Care Of You
TTITLE17=All I Want
EXTD=
EXTT0=
EXTT1=
EXTT2=
EXTT3=
EXTT4=
EXTT5=
EXTT6=
EXTT7=
EXTT8=
EXTT9=
EXTT10=
EXTT11=
EXTT12=
EXTT13=
EXTT14=
EXTT15=
EXTT16=
EXTT17=
PLAYORDER=
